<svg xmlns="http://www.w3.org/2000/svg" version="1.1" xmlns:xlink="http://www.w3.org/1999/xlink" xmlns:svgjs="http://svgjs.dev/svgjs" width="1000" height="1000" viewBox="0 0 1000 1000"><rect width="1000" height="1000" fill="#ffffff"></rect><g transform="matrix(0.7,0,0,0.7,149.57575757575756,367.27573720429655)"><svg viewBox="0 0 396 150" data-background-color="#77d4fc" preserveAspectRatio="xMidYMid meet" height="378" width="1000" xmlns="http://www.w3.org/2000/svg" xmlns:xlink="http://www.w3.org/1999/xlink"><g id="tight-bounds" transform="matrix(1,0,0,1,0.2400000000000091,0.24051178894757186)"><svg viewBox="0 0 395.52 149.51897289586304" height="149.51897289586304" width="395.52"><g><svg viewBox="0 0 395.52 149.51897289586304" height="149.51897289586304" width="395.52"><g><svg viewBox="0 0 395.52 149.51897289586304" height="149.51897289586304" width="395.52"><g id="textblocktransform"><svg viewBox="0 0 395.52 149.51897289586304" height="149.51897289586304" width="395.52" id="textblock"><g><svg viewBox="0 0 395.52 149.51897289586304" height="149.51897289586304" width="395.52"><g transform="matrix(1,0,0,1,0,0)"><svg width="395.52" viewBox="-0.49000000953674316 -37.11000061035156 102.68000030517578 38.81999969482422" height="149.51897289586304" data-palette-color="#000000"><path d="M4.98-0.63L4.64-0.78Q4.49-0.68 4.35-0.59 4.2-0.49 4.05-0.39L4.05-0.39Q3.52-0.1 3.08-0.07 2.64-0.05 2.1 0.44L2.1 0.44Q1.9 0.2 1.81 0.2 1.71 0.2 1.46 0.2L1.46 0.2Q0.83 0.2 0.73-0.15L0.73-0.15Q0.54-0.1 0.12 0.1-0.29 0.29-0.49 0.39L-0.49 0.39Q-0.05-0.24 0.1-0.59 0.24-0.93 0.27-1.22 0.29-1.51 0.32-1.83 0.34-2.15 0.54-2.73L0.54-2.73Q0.63-2.93 0.68-3.13 0.73-3.32 0.83-3.56L0.83-3.56Q1.07-4.3 1.25-5.22 1.42-6.15 1.81-6.84L1.81-6.84Q1.81-7.67 2.17-8.4 2.54-9.13 2.78-9.91L2.78-9.91Q2.88-10.21 3.05-10.5 3.22-10.79 3.32-11.08L3.32-11.08Q3.52-11.57 3.64-12.04 3.76-12.5 3.91-12.94L3.91-12.94Q4.3-14.36 4.69-15.75 5.08-17.14 5.42-18.55L5.42-18.55Q5.47-18.8 5.54-19.09 5.62-19.38 5.71-19.63L5.71-19.63Q5.96-20.36 6.03-21.12 6.1-21.88 6.49-22.56L6.49-22.56Q6.45-22.9 6.52-23.19 6.59-23.49 6.69-23.83 6.79-24.17 6.88-24.46 6.98-24.76 7.03-24.9L7.03-24.9Q7.28-25.54 7.4-26.05 7.52-26.56 7.91-27.15L7.91-27.15Q7.91-27.15 8.06-27.66 8.2-28.17 8.4-28.81 8.59-29.44 8.74-30 8.89-30.57 8.89-30.66L8.89-30.66Q8.98-31.05 9.06-31.4 9.13-31.74 9.23-32.13L9.23-32.13Q9.33-32.37 9.42-32.54 9.52-32.71 9.62-32.96L9.62-32.96Q9.77-33.5 9.91-34.28 10.06-35.06 10.3-35.5L10.3-35.5Q10.45-35.84 10.86-36.06 11.28-36.28 11.57-36.52L11.57-36.52Q12.45-36.43 12.87-36.62 13.28-36.82 13.67-37.11L13.67-37.11Q13.92-37.06 14.14-36.99 14.36-36.91 14.6-36.91L14.6-36.91Q15.53-35.89 15.89-34.81 16.26-33.74 16.6-32.67L16.6-32.67Q16.75-32.13 16.89-31.62 17.04-31.1 17.24-30.62L17.24-30.62Q17.29-30.47 17.38-30.3 17.48-30.13 17.58-29.93L17.58-29.93Q17.82-29.54 17.99-29.1 18.16-28.66 18.31-28.22L18.31-28.22Q18.6-27.88 18.75-27.42 18.9-26.95 19.02-26.49 19.14-26.03 19.29-25.61 19.43-25.2 19.73-24.9L19.73-24.9Q19.82-24.37 20.07-23.85 20.31-23.34 20.41-22.75L20.41-22.75Q20.7-22.36 21.09-21.26 21.48-20.17 21.88-18.9 22.27-17.63 22.61-16.46 22.95-15.28 23.1-14.79L23.1-14.79Q23.19-14.4 23.49-13.79 23.78-13.18 24.02-12.7L24.02-12.7Q24.22-12.16 24.44-11.57 24.66-10.99 24.8-10.45L24.8-10.45Q24.9-9.91 25.02-9.42 25.15-8.94 25.29-8.4L25.29-8.4Q25.39-8.06 25.59-7.79 25.78-7.52 25.88-7.13L25.88-7.13Q26.07-6.74 26.15-6.4 26.22-6.05 26.46-5.66L26.46-5.66Q26.42-5.13 26.51-4.98 26.61-4.83 26.71-4.64L26.71-4.64Q26.9-3.61 27.15-3 27.39-2.39 27.39-1.71L27.39-1.71Q27.39-1.12 27.17-0.98 26.95-0.83 26.61-0.49L26.61-0.49Q26.22-0.15 25.95 0.05 25.68 0.24 25.15 0.24L25.15 0.24Q24.56 0.2 24.44 0.42 24.32 0.63 24.27 0.73L24.27 0.73Q23.68 0.68 23.51 0.71 23.34 0.73 23.17 0.73 23 0.73 22.83 0.81 22.66 0.88 22.46 1.12L22.46 1.12Q22.12 0.73 21.8 0.42 21.48 0.1 21.24-0.29L21.24-0.29Q21.24-1.12 21.02-2.25 20.8-3.37 20.56-4L20.56-4Q20.07-5.27 19.65-6.49 19.24-7.71 18.85-8.98L18.85-8.98Q18.7-9.52 18.53-9.96 18.36-10.4 18.16-10.89L18.16-10.89Q18.26-10.5 18.24-10.08 18.21-9.67 17.97-9.28L17.97-9.28Q17.87-9.18 17.68-9.03 17.48-8.89 17.48-8.79L17.48-8.79Q16.89-8.3 16.46-7.86L16.46-7.86Q16.5-6.98 16.21-6.64 15.92-6.3 15.58-6.01L15.58-6.01Q14.75-5.96 14.55-6.1 14.36-6.25 14.01-6.3L14.01-6.3Q13.82-6.35 13.62-6.32 13.43-6.3 13.23-6.3L13.23-6.3Q12.84-6.3 12.5-6.49L12.5-6.49Q12.35-6.59 12.28-6.69 12.21-6.79 12.11-6.88L12.11-6.88Q11.72-7.28 11.21-7.54 10.69-7.81 10.21-8.01L10.21-8.01Q9.81-8.35 9.4-8.72 8.98-9.08 8.54-9.33L8.54-9.33Q8.15-8.4 7.93-7.69 7.71-6.98 7.42-6.3L7.42-6.3Q6.88-4.64 6.54-3.39 6.2-2.15 5.76-0.88L5.76-0.88Q5.57-0.83 5.4-0.73 5.22-0.63 4.98-0.63L4.98-0.63ZM9.23-11.18L9.42-11.18Q9.81-11.87 10.13-11.94 10.45-12.01 10.69-12.3L10.69-12.3Q10.79-12.4 10.91-12.55 11.04-12.7 11.18-12.84L11.18-12.84Q11.33-12.94 11.52-13.04 11.72-13.13 11.87-13.28L11.87-13.28Q12.26-13.62 12.52-13.87 12.79-14.11 13.33-14.11L13.33-14.11Q14.16-14.11 14.7-13.7 15.23-13.28 16.02-13.13L16.02-13.13Q16.11-12.84 16.65-12.72 17.19-12.6 17.48-12.4L17.48-12.4Q16.99-13.62 16.72-14.87 16.46-16.11 16.06-17.33L16.06-17.33Q15.77-18.41 15.38-19.46 14.99-20.51 14.6-21.48L14.6-21.48Q14.26-22.46 14.01-23.39 13.77-24.32 13.38-25.2L13.38-25.2Q12.99-24.32 12.6-23.05 12.21-21.78 12.01-20.8L12.01-20.8Q12.01-20.36 11.96-20.12L11.96-20.12Q11.87-19.78 11.77-19.51 11.67-19.24 11.57-18.95L11.57-18.95Q10.94-17.04 10.42-15.09 9.91-13.13 9.23-11.18L9.23-11.18ZM50.14-5.86L50.14-5.86Q49.66-5.81 49.56-5.91L49.56-5.91Q49.36-5.81 49.19-5.71 49.02-5.62 48.83-5.47L48.83-5.47Q48.14-5.22 47.48-4.83 46.82-4.44 46.14-4.1L46.14-4.1Q45.75-3.91 45.38-3.78 45.02-3.66 44.63-3.47L44.63-3.47Q44.04-3.17 43.45-2.86 42.87-2.54 42.23-2.29L42.23-2.29Q41.89-2.2 41.57-2.1 41.26-2 40.92-1.9L40.92-1.9Q40.52-1.76 40.21-1.59 39.89-1.42 39.55-1.27L39.55-1.27Q39.3-1.17 39.04-1.1 38.77-1.03 38.47-0.88L38.47-0.88Q38.23-0.78 38.06-0.63 37.89-0.49 37.64-0.39L37.64-0.39Q37.25-0.24 36.84-0.1 36.42 0.05 36.03 0.24L36.03 0.24Q35.64 0.44 35.47 0.61 35.3 0.78 34.81 0.93L34.81 0.93Q34.32 1.22 34.27 1.25 34.23 1.27 34.13 1.27L34.13 1.27Q33.98 1.37 33.86 1.44 33.74 1.51 33.59 1.61L33.59 1.61Q33.3 1.61 33.01 1.66 32.71 1.71 32.42 1.71L32.42 1.71Q32.08 1.51 31.96 1.32 31.83 1.12 31.83 0.78L31.83 0.78Q31.64 0.54 31.47 0.24 31.3-0.05 31.1-0.29L31.1-0.29Q30.76-0.1 30.69-0.32 30.61-0.54 30.56-0.81 30.52-1.07 30.47-1.34 30.42-1.61 30.37-1.71L30.37-1.71Q30.12-2.64 30.12-3.08L30.12-3.08Q30.12-3.32 30.22-3.39 30.32-3.47 30.32-3.61L30.32-3.61Q30.37-4.1 30.42-4.74 30.47-5.37 30.47-6.05 30.47-6.74 30.47-7.42 30.47-8.11 30.47-8.64L30.47-8.64Q30.47-10.84 30.42-12.92 30.37-14.99 30.37-17.09L30.37-17.09Q30.37-18.07 30.42-19.04 30.47-20.02 30.47-21L30.47-21Q30.47-23.39 30.54-25.73 30.61-28.08 30.61-30.47L30.61-30.47Q30.61-31.45 30.52-32.45 30.42-33.45 30.37-34.47L30.37-34.47Q30.32-35.01 30.42-35.33 30.52-35.64 30.47-35.99L30.47-35.99Q30.61-36.04 31-36.04 31.39-36.04 31.81-36.06 32.22-36.08 32.59-36.11 32.96-36.13 33.05-36.18L33.05-36.18Q33.4-35.94 33.74-35.94L33.74-35.94Q34.08-35.94 34.37-36.23L34.37-36.23Q34.62-36.13 34.64-36.08 34.67-36.04 34.91-36.04L34.91-36.04Q35.35-36.08 35.59-36.11 35.84-36.13 36.03-36.13L36.03-36.13Q36.57-35.74 36.69-35.18 36.81-34.62 36.86-34.01 36.91-33.4 36.94-32.79 36.96-32.18 36.96-31.79L36.96-31.79Q36.96-31.49 37.01-31.18 37.06-30.86 37.06-30.52L37.06-30.52Q37.06-30.27 37.03-30.03 37.01-29.79 37.01-29.54L37.01-29.54Q37.01-28.13 37.03-26.66 37.06-25.2 37.06-23.78L37.06-23.78Q37.06-21.24 36.98-18.68 36.91-16.11 36.91-13.57L36.91-13.57Q36.91-13.04 36.96-12.5 37.01-11.96 37.01-11.43L37.01-11.43Q37.01-11.13 36.98-10.84 36.96-10.55 36.96-10.25L36.96-10.25Q36.96-8.45 37.11-6.64L37.11-6.64Q37.3-6.69 37.94-6.91 38.57-7.13 39.26-7.4 39.94-7.67 40.52-7.93 41.11-8.2 41.26-8.35L41.26-8.35Q41.45-8.35 41.79-8.5 42.14-8.64 42.53-8.86 42.92-9.08 43.28-9.28 43.65-9.47 43.8-9.62L43.8-9.62Q43.75-10.6 43.75-11.6 43.75-12.6 43.75-13.57L43.75-13.57Q43.75-16.26 43.82-18.95 43.89-21.63 43.89-24.41L43.89-24.41Q43.89-26.12 43.85-27.83 43.8-29.54 43.8-31.25L43.8-31.25Q43.8-31.79 43.82-32.35 43.85-32.91 43.85-33.45L43.85-33.45Q43.85-34.28 43.82-35.08 43.8-35.89 43.89-36.72L43.89-36.72Q44.38-36.96 44.43-36.96L44.43-36.96Q44.72-36.96 44.85-36.96 44.97-36.96 45.07-36.87L45.07-36.87Q45.21-36.82 45.33-36.84 45.46-36.87 45.6-36.87L45.6-36.87Q45.85-36.87 46.09-36.77 46.34-36.67 46.58-36.67L46.58-36.67Q46.97-36.72 46.99-36.57 47.02-36.43 47.17-36.43L47.17-36.43Q47.56-36.57 47.7-36.43L47.7-36.43Q47.85-36.33 48.24-36.16 48.63-35.99 49.07-35.79 49.51-35.6 49.85-35.42 50.19-35.25 50.19-35.11L50.19-35.11Q50.34-34.33 50.29-33.45 50.24-32.57 50.24-31.79L50.24-31.79Q50.24-31.1 50.29-30.42 50.34-29.74 50.34-29.05L50.34-29.05Q50.34-28.66 50.34-28.27 50.34-27.88 50.39-27.54L50.39-27.54Q50.44-27.29 50.44-27.12 50.44-26.95 50.44-26.76L50.44-26.76Q50.44-26.51 50.53-26.12L50.53-26.12Q50.49-25.88 50.49-25.61 50.49-25.34 50.49-25.1L50.49-25.1Q50.49-24.41 50.53-23.68 50.58-22.95 50.58-22.22L50.58-22.22Q50.58-21.73 50.51-21.29 50.44-20.85 50.44-20.41L50.44-20.41 50.49-19.48Q50.49-18.99 50.53-18.51 50.58-18.02 50.58-17.48L50.58-17.48Q50.58-17.24 50.56-16.99 50.53-16.75 50.49-16.5L50.49-16.5Q50.44-16.26 50.44-15.97 50.44-15.67 50.44-15.43L50.44-15.43Q50.44-14.75 50.49-14.06 50.53-13.38 50.53-12.7L50.53-12.7Q50.53-12.26 50.51-11.84 50.49-11.43 50.49-10.99L50.49-10.99Q50.49-10.11 50.56-9.18 50.63-8.25 50.63-7.37L50.63-7.37Q50.63-6.98 50.53-6.54 50.44-6.1 50.14-5.86ZM76.56-34.91L76.56-34.91Q76.46-34.72 76.48-34.52 76.51-34.33 76.51-34.08L76.51-34.08Q76.41-33.5 76.51-33.5 76.61-33.5 76.61-33.4L76.61-33.4 76.26-32.91Q76.26-32.62 76.14-32.37 76.02-32.13 76.07-31.79L76.07-31.79Q75.92-31.54 75.8-31.3 75.68-31.05 75.43-30.81L75.43-30.81 74.8-30.81Q74.26-30.81 73.65-30.74 73.04-30.66 72.46-30.66L72.46-30.66Q72.36-30.66 72.21-30.69 72.07-30.71 71.92-30.71L71.92-30.71Q71.82-30.71 71.67-30.69 71.53-30.66 71.33-30.66L71.33-30.66Q70.6-30.66 69.89-30.74 69.18-30.81 68.4-30.81L68.4-30.81Q68.21-30.81 68.01-30.81 67.82-30.81 67.57-30.76L67.57-30.76Q67.52-29.93 67.5-29.08 67.48-28.22 67.48-27.34L67.48-27.34Q67.48-27.1 67.43-26.83 67.38-26.56 67.38-26.32L67.38-26.32Q67.33-25.68 67.3-25.1 67.28-24.51 67.28-23.88L67.28-23.88Q67.28-22.51 67.3-21.14 67.33-19.78 67.38-18.36L67.38-18.36Q67.43-17.63 67.48-16.94 67.52-16.26 67.52-15.53L67.52-15.53Q67.52-13.87 67.48-12.23 67.43-10.6 67.43-8.94L67.43-8.94Q67.43-8.4 67.38-7.93 67.33-7.47 67.33-6.93L67.33-6.93Q67.33-5.81 67.38-4.69 67.43-3.56 67.43-2.44L67.43-2.44Q67.43-1.9 67.4-1.37 67.38-0.83 67.38-0.29L67.38-0.29Q67.13 0.1 67.04 0.39 66.94 0.68 66.45 0.68L66.45 0.68Q66.11 0.59 66.13 0.46 66.16 0.34 66.06 0.24L66.06 0.24Q65.62 0.2 65.4 0.32 65.18 0.44 64.89 0.54L64.89 0.54Q64.74 0.49 64.57 0.49 64.4 0.49 64.25 0.49L64.25 0.49Q64.16 0.49 64.06 0.56 63.96 0.63 63.62 0.63L63.62 0.63Q63.33 0.68 63.28 0.54 63.23 0.39 62.98 0.39L62.98 0.39Q62.74 0.54 62.42 0.61 62.1 0.68 61.81 0.68L61.81 0.68Q61.52 0.49 61.54 0.32 61.57 0.15 61.47-0.05L61.47-0.05Q61.42-0.15 61.3-0.32 61.18-0.49 61.08-0.59L61.08-0.59Q61.18-1.27 61.23-1.81 61.27-2.34 61.27-2.98L61.27-2.98Q61.27-4.25 61.18-5.47 61.08-6.69 61.08-7.96L61.08-7.96Q61.08-8.35 61.18-8.79 61.27-9.23 61.27-9.72L61.27-9.72Q61.18-10.11 61.23-10.18 61.27-10.25 61.27-10.35L61.27-10.35Q61.27-10.64 61.25-10.94 61.23-11.23 61.23-11.52L61.23-11.52Q61.23-12.11 61.25-12.7 61.27-13.28 61.27-13.87L61.27-13.87Q61.27-14.11 61.25-14.38 61.23-14.65 61.23-14.89L61.23-14.89Q61.18-15.33 61.2-15.82 61.23-16.31 61.23-16.8L61.23-16.8Q61.23-19.14 61.15-21.44 61.08-23.73 61.08-26.07L61.08-26.07Q61.08-27.2 61.2-28.37 61.32-29.54 61.32-30.71L61.32-30.71Q61.32-30.86 61.23-31.1 61.13-31.35 61.03-31.45L61.03-31.45Q60.79-31.45 60.57-31.47 60.35-31.49 60.1-31.49L60.1-31.49Q59.57-31.49 59.08-31.35L59.08-31.35Q58.15-31.3 57.29-31.23 56.44-31.15 55.56-31.1L55.56-31.1Q54.98-31.15 54.85-31.13 54.73-31.1 54.58-31.1L54.58-31.1Q54.19-31.1 54-31.3L54-31.3 54-31.93Q53.71-32.52 53.75-32.57 53.8-32.62 53.8-32.71L53.8-32.71Q53.8-32.86 53.54-33.03 53.27-33.2 53.27-33.59L53.27-33.59Q53.22-33.98 53.07-34.18 52.92-34.38 52.92-34.57L52.92-34.57Q52.92-34.91 53.07-35.35L53.07-35.35Q53.51-35.6 53.93-35.69 54.34-35.79 54.88-35.94L54.88-35.94Q55.17-36.04 55.41-36.13 55.66-36.23 55.95-36.28L55.95-36.28Q56.29-36.33 56.64-36.33 56.98-36.33 57.32-36.38L57.32-36.38Q58.05-36.52 58.86-36.62 59.66-36.72 60.4-36.72L60.4-36.72Q61.08-36.72 61.76-36.55 62.45-36.38 62.98-36.38L62.98-36.38Q63.76-36.38 64.47-36.28 65.18-36.18 65.96-36.18L65.96-36.18Q66.06-36.18 66.28-36.11 66.5-36.04 66.79-36.04L66.79-36.04 71.53-36.04Q71.92-35.94 72.09-35.99 72.26-36.04 72.41-36.04L72.41-36.04Q72.8-36.04 73.14-35.99 73.48-35.94 73.87-35.94L73.87-35.94Q74.21-35.94 74.41-35.99L74.41-35.99Q74.8-35.94 75.14-35.77 75.48-35.6 75.92-35.6L75.92-35.6Q76.12-35.45 76.22-35.23 76.31-35.01 76.56-34.91ZM99.46-36.28L99.94-36.13Q100.53-36.28 100.77-36.25 101.02-36.23 101.26-36.18L101.26-36.18Q101.56-35.99 101.75-35.69L101.75-35.69Q101.75-34.67 101.73-33.67 101.7-32.67 101.7-31.64L101.7-31.64Q101.7-29.79 101.75-27.93 101.8-26.07 101.75-24.22L101.75-24.22Q101.85-23.78 101.8-23.73 101.75-23.68 101.75-23.58L101.75-23.58Q101.75-21.73 101.85-19.92 101.95-18.12 101.95-16.26L101.95-16.26 101.95-9.77Q101.95-7.67 102.07-5.62 102.19-3.56 102.19-1.51L102.19-1.51Q102.19-1.32 101.95-0.98L101.95-0.98Q101.85-0.59 101.65-0.34L101.65-0.34Q101.21-0.29 100.82-0.49L100.82-0.49Q100.63-0.49 100.55-0.37 100.48-0.24 100.33-0.15L100.33-0.15Q99.94-0.15 99.7 0.05 99.46 0.24 99.11 0.24L99.11 0.24Q98.82 0.24 98.55 0.17 98.28 0.1 97.94 0.1L97.94 0.1Q97.84 0.1 97.65 0.27 97.45 0.44 97.36 0.49L97.36 0.49Q97.11 0.49 96.92 0.56 96.72 0.63 96.48 0.63L96.48 0.63Q96.23 0.44 96.26 0.05 96.28-0.34 95.94-0.44L95.94-0.44Q95.94-0.68 95.96-0.98 95.99-1.27 95.99-1.56L95.99-1.56Q95.99-3.47 95.89-5.4 95.79-7.32 95.74-9.23L95.74-9.23Q95.7-10.06 95.72-10.86 95.74-11.67 95.74-12.5L95.74-12.5Q95.74-12.94 95.74-13.38 95.74-13.82 95.65-14.21L95.65-14.21Q95.35-14.26 95.13-14.14 94.91-14.01 94.67-14.01L94.67-14.01Q93.64-13.67 93.3-13.33L93.3-13.33Q93.01-13.33 92.81-13.23 92.62-13.13 92.38-13.04L92.38-13.04Q91.98-12.94 91.62-12.87 91.25-12.79 90.86-12.65L90.86-12.65Q90.62-12.55 90.37-12.45 90.13-12.35 89.89-12.26L89.89-12.26Q89.35-12.06 88.81-11.89 88.27-11.72 87.74-11.52L87.74-11.52Q87.2-11.43 86.81-11.23 86.42-11.04 86.03-10.84L86.03-10.84Q85.69-8.54 85.66-6.47 85.64-4.39 85.78-2.34L85.78-2.34Q85.69-2.05 85.69-1.68 85.69-1.32 85.54-1.07L85.54-1.07Q85-0.93 84.83-1.05 84.66-1.17 84.47-1.27L84.47-1.27Q84.27-1.22 84.15-1.07 84.03-0.93 83.93-0.83L83.93-0.83Q83.54-0.83 83.32-0.66 83.1-0.49 82.9-0.39L82.9-0.39Q82.76-0.34 82.61-0.39 82.46-0.44 82.27-0.34L82.27-0.34Q81.78-0.34 81.8-0.46 81.83-0.59 81.68-0.59L81.68-0.59Q81.49-0.59 81.41-0.42 81.34-0.24 81.14-0.15L81.14-0.15Q80.95-0.05 80.71-0.02 80.46 0 80.22 0.1L80.22 0.1Q79.97-0.15 79.97-0.44 79.97-0.73 79.73-0.98L79.73-0.98Q79.63-1.66 79.61-2.32 79.58-2.98 79.44-3.66L79.44-3.66Q79.53-5.03 79.51-5.86 79.48-6.69 79.48-7.57L79.48-7.57Q79.48-8.35 79.44-9.13 79.39-9.91 79.34-10.69L79.34-10.69Q79.24-12.11 79.17-13.57 79.09-15.04 79.09-16.5L79.09-16.5Q79.09-17.72 79.22-18.9 79.34-20.07 79.34-21.29L79.34-21.29Q79.34-22.12 79.36-22.92 79.39-23.73 79.39-24.56L79.39-24.56Q79.39-25.24 79.36-25.9 79.34-26.56 79.34-27.2L79.34-27.2Q79.34-27.93 79.44-28.64 79.53-29.35 79.53-30.03L79.53-30.03Q79.53-30.86 79.44-31.67 79.34-32.47 79.34-33.3L79.34-33.3Q79.34-33.54 79.39-33.76 79.44-33.98 79.44-34.23L79.44-34.23Q79.39-34.77 79.48-34.89 79.58-35.01 79.68-35.21L79.68-35.21Q79.92-35.25 80.22-35.35 80.51-35.45 80.75-35.35L80.75-35.35Q81.05-35.64 81.56-35.64 82.07-35.64 82.32-35.99L82.32-35.99Q82.66-35.94 82.78-35.96 82.9-35.99 83-35.99L83-35.99Q83.44-35.89 83.46-36.01 83.49-36.13 83.64-36.13L83.64-36.13Q83.88-36.13 84.39-36.11 84.9-36.08 85.1-35.89L85.1-35.89Q85.59-33.3 85.64-30.62 85.69-27.93 85.69-25.29L85.69-25.29Q85.69-24.61 85.73-23.9 85.78-23.19 85.69-22.51L85.69-22.51Q85.69-22.22 85.64-21.95 85.59-21.68 85.59-21.39L85.59-21.39Q85.59-20.56 85.49-19.65 85.39-18.75 85.39-17.92L85.39-17.92Q85.98-17.58 86.39-17.7 86.81-17.82 87.2-17.97L87.2-17.97Q87.69-18.12 88.1-18.29 88.52-18.46 88.96-18.6L88.96-18.6Q89.35-18.8 89.81-18.92 90.28-19.04 90.67-19.14L90.67-19.14Q91.94-19.58 93.16-20.21 94.38-20.85 95.65-21.24L95.65-21.24Q95.55-23.93 95.55-26.59 95.55-29.25 95.55-31.88L95.55-31.88Q95.55-32.62 95.55-33.4 95.55-34.18 95.65-34.91L95.65-34.91Q95.7-35.11 95.77-35.23 95.84-35.35 95.84-35.6L95.84-35.6Q95.99-35.84 96.18-35.94 96.38-36.04 96.48-36.23L96.48-36.23Q96.57-36.13 96.7-36.06 96.82-35.99 96.97-35.94L96.97-35.94Q97.36-36.04 97.43-36.08 97.5-36.13 97.6-36.18L97.6-36.18Q97.84-36.28 98.23-36.28 98.63-36.28 98.87-36.28L98.87-36.28 99.46-36.28Z" opacity="1" transform="matrix(1,0,0,1,0,0)" fill="#000000" class="wordmark-text-0" data-fill-palette-color="primary" id="text-0"></path></svg></g></svg></g></svg></g></svg></g></svg></g><defs></defs></svg><rect width="395.52" height="149.51897289586304" fill="none" stroke="none" visibility="hidden"></rect></g></svg></g></svg>